<svg xmlns="http://www.w3.org/2000/svg" xmlns:xlink="http://www.w3.org/1999/xlink" width="1920" zoomAndPan="magnify" viewBox="0 0 1440 735" height="980" preserveAspectRatio="xMidYMid meet" version="1.0"><defs><g/><clipPath id="5f7ff905f4"><path d="M 792.363281 156.011719 L 1413 156.011719 L 1413 530.257812 L 792.363281 530.257812 Z M 792.363281 156.011719 " clip-rule="nonzero"/></clipPath><clipPath id="af44f3d443"><path d="M 826.863281 156.011719 L 1377.8125 156.011719 C 1386.960938 156.011719 1395.738281 159.644531 1402.207031 166.113281 C 1408.675781 172.585938 1412.3125 181.359375 1412.3125 190.511719 L 1412.3125 495.757812 C 1412.3125 504.90625 1408.675781 513.683594 1402.207031 520.152344 C 1395.738281 526.621094 1386.960938 530.257812 1377.8125 530.257812 L 826.863281 530.257812 C 817.714844 530.257812 808.941406 526.621094 802.46875 520.152344 C 796 513.683594 792.363281 504.90625 792.363281 495.757812 L 792.363281 190.511719 C 792.363281 181.359375 796 172.585938 802.46875 166.113281 C 808.941406 159.644531 817.714844 156.011719 826.863281 156.011719 Z M 826.863281 156.011719 " clip-rule="nonzero"/></clipPath></defs><g clip-path="url(#5f7ff905f4)"><g clip-path="url(#af44f3d443)"><path fill="#ffa31a" d="M 792.363281 156.011719 L 1412.210938 156.011719 L 1412.210938 530.257812 L 792.363281 530.257812 Z M 792.363281 156.011719 " fill-opacity="1" fill-rule="nonzero"/></g></g><g fill="#ffffff" fill-opacity="1"><g transform="translate(21.969163, 439.995616)"><g><path d="M 159.046875 -223.6875 C 170.554688 -218.769531 180.046875 -210.976562 187.515625 -200.3125 C 194.984375 -189.644531 198.71875 -175.78125 198.71875 -158.71875 C 198.71875 -142.082031 195.035156 -128.269531 187.671875 -117.28125 C 180.316406 -106.289062 170.988281 -98.453125 159.6875 -93.765625 C 148.164062 -88.859375 129.816406 -86.40625 104.640625 -86.40625 L 69.4375 -86.40625 L 69.4375 0 L 23.359375 0 L 23.359375 -229.125 L 103.046875 -229.125 C 117.765625 -229.125 129.492188 -228.75 138.234375 -228 C 146.984375 -227.25 153.921875 -225.8125 159.046875 -223.6875 Z M 151.046875 -158.078125 C 151.046875 -171.734375 144.320312 -181.441406 130.875 -187.203125 C 125.96875 -189.335938 115.625 -190.40625 99.84375 -190.40625 L 69.4375 -190.40625 L 69.4375 -125.125 L 99.84375 -125.125 C 115.625 -125.125 128.101562 -127.304688 137.28125 -131.671875 C 146.457031 -136.046875 151.046875 -144.847656 151.046875 -158.078125 Z M 151.046875 -158.078125 "/></g></g></g><g fill="#ffffff" fill-opacity="1"><g transform="translate(235.405452, 439.995616)"><g><path d="M 87.6875 -169.59375 C 108.800781 -169.59375 124.476562 -166.875 134.71875 -161.4375 C 144.957031 -156 151.410156 -148.851562 154.078125 -140 C 156.742188 -131.144531 157.972656 -119.460938 157.765625 -104.953125 L 157.4375 -56.640625 C 157.226562 -41.492188 157.757812 -30.503906 159.03125 -23.671875 C 160.3125 -16.847656 162.984375 -8.957031 167.046875 0 L 123.84375 0 C 122.769531 -2.34375 120.847656 -8.421875 118.078125 -18.234375 C 110.179688 -10.554688 102.019531 -4.957031 93.59375 -1.4375 C 85.164062 2.082031 76.15625 3.84375 66.5625 3.84375 C 50.132812 3.84375 36.851562 -0.6875 26.71875 -9.75 C 16.582031 -18.820312 11.515625 -30.613281 11.515625 -45.125 C 11.515625 -57.28125 14.554688 -66.929688 20.640625 -74.078125 C 26.722656 -81.222656 34.132812 -86.394531 42.875 -89.59375 C 51.625 -92.800781 61.972656 -95.578125 73.921875 -97.921875 C 92.265625 -101.335938 105.8125 -104.75 114.5625 -108.15625 L 114.5625 -115.203125 C 114.5625 -122.453125 112.425781 -127.726562 108.15625 -131.03125 C 103.894531 -134.34375 96.109375 -136 84.796875 -136 C 76.054688 -136 69.550781 -134.238281 65.28125 -130.71875 C 61.007812 -127.195312 57.8125 -122.023438 55.6875 -115.203125 L 16 -122.5625 C 20.269531 -138.769531 27.953125 -150.660156 39.046875 -158.234375 C 50.140625 -165.804688 66.351562 -169.59375 87.6875 -169.59375 Z M 87.046875 -72.640625 L 79.6875 -71.046875 C 63.46875 -67.628906 55.359375 -60.585938 55.359375 -49.921875 C 55.359375 -43.515625 57.648438 -38.125 62.234375 -33.75 C 66.828125 -29.382812 72.644531 -27.203125 79.6875 -27.203125 C 85.4375 -27.203125 91.191406 -28.691406 96.953125 -31.671875 C 102.710938 -34.660156 107.195312 -38.609375 110.40625 -43.515625 C 113.175781 -47.992188 114.5625 -55.675781 114.5625 -66.5625 L 114.5625 -79.6875 C 106.238281 -77.125 97.066406 -74.773438 87.046875 -72.640625 Z M 87.046875 -72.640625 "/></g></g></g><g fill="#ffffff" fill-opacity="1"><g transform="translate(413.322342, 439.995616)"><g><path d="M 83.515625 -169.59375 C 104.210938 -169.59375 120.476562 -166.179688 132.3125 -159.359375 C 144.15625 -152.535156 152.316406 -141.335938 156.796875 -125.765625 L 115.203125 -118.078125 C 113.273438 -124.898438 109.804688 -129.960938 104.796875 -133.265625 C 99.785156 -136.578125 92.800781 -138.234375 83.84375 -138.234375 C 64 -138.234375 54.078125 -133.648438 54.078125 -124.484375 C 54.078125 -120.003906 57.328125 -116.429688 63.828125 -113.765625 C 70.335938 -111.097656 79.78125 -108.375 92.15625 -105.59375 C 107.300781 -102.1875 119.675781 -98.722656 129.28125 -95.203125 C 138.882812 -91.679688 146.773438 -86.453125 152.953125 -79.515625 C 159.140625 -72.585938 162.234375 -63.363281 162.234375 -51.84375 C 162.234375 -42.457031 159.617188 -33.550781 154.390625 -25.125 C 149.171875 -16.695312 140.90625 -9.757812 129.59375 -4.3125 C 118.289062 1.125 104 3.84375 86.71875 3.84375 C 67.300781 3.84375 50.179688 -0.316406 35.359375 -8.640625 C 20.535156 -16.960938 11.203125 -29.867188 7.359375 -47.359375 L 51.203125 -54.078125 C 55.253906 -36.367188 67.09375 -27.515625 86.71875 -27.515625 C 94.394531 -27.515625 101.59375 -28.847656 108.3125 -31.515625 C 115.039062 -34.179688 118.40625 -38.929688 118.40625 -45.765625 C 118.40625 -50.242188 116.859375 -53.390625 113.765625 -55.203125 C 110.671875 -57.015625 105.707031 -58.664062 98.875 -60.15625 C 78.613281 -64.632812 62.828125 -68.796875 51.515625 -72.640625 C 40.210938 -76.484375 31.039062 -82.03125 24 -89.28125 C 16.957031 -96.53125 13.4375 -106.34375 13.4375 -118.71875 C 13.4375 -136 20.050781 -148.796875 33.28125 -157.109375 C 46.507812 -165.429688 63.253906 -169.59375 83.515625 -169.59375 Z M 83.515625 -169.59375 "/></g></g></g><g fill="#ffffff" fill-opacity="1"><g transform="translate(591.239232, 439.995616)"><g><path d="M 83.515625 -169.59375 C 104.210938 -169.59375 120.476562 -166.179688 132.3125 -159.359375 C 144.15625 -152.535156 152.316406 -141.335938 156.796875 -125.765625 L 115.203125 -118.078125 C 113.273438 -124.898438 109.804688 -129.960938 104.796875 -133.265625 C 99.785156 -136.578125 92.800781 -138.234375 83.84375 -138.234375 C 64 -138.234375 54.078125 -133.648438 54.078125 -124.484375 C 54.078125 -120.003906 57.328125 -116.429688 63.828125 -113.765625 C 70.335938 -111.097656 79.78125 -108.375 92.15625 -105.59375 C 107.300781 -102.1875 119.675781 -98.722656 129.28125 -95.203125 C 138.882812 -91.679688 146.773438 -86.453125 152.953125 -79.515625 C 159.140625 -72.585938 162.234375 -63.363281 162.234375 -51.84375 C 162.234375 -42.457031 159.617188 -33.550781 154.390625 -25.125 C 149.171875 -16.695312 140.90625 -9.757812 129.59375 -4.3125 C 118.289062 1.125 104 3.84375 86.71875 3.84375 C 67.300781 3.84375 50.179688 -0.316406 35.359375 -8.640625 C 20.535156 -16.960938 11.203125 -29.867188 7.359375 -47.359375 L 51.203125 -54.078125 C 55.253906 -36.367188 67.09375 -27.515625 86.71875 -27.515625 C 94.394531 -27.515625 101.59375 -28.847656 108.3125 -31.515625 C 115.039062 -34.179688 118.40625 -38.929688 118.40625 -45.765625 C 118.40625 -50.242188 116.859375 -53.390625 113.765625 -55.203125 C 110.671875 -57.015625 105.707031 -58.664062 98.875 -60.15625 C 78.613281 -64.632812 62.828125 -68.796875 51.515625 -72.640625 C 40.210938 -76.484375 31.039062 -82.03125 24 -89.28125 C 16.957031 -96.53125 13.4375 -106.34375 13.4375 -118.71875 C 13.4375 -136 20.050781 -148.796875 33.28125 -157.109375 C 46.507812 -165.429688 63.253906 -169.59375 83.515625 -169.59375 Z M 83.515625 -169.59375 "/></g></g></g><g fill="#000000" fill-opacity="1"><g transform="translate(808.918454, 438.451279)"><g><path d="M 66.59375 -144.703125 C 74.0625 -153.453125 81.898438 -159.800781 90.109375 -163.75 C 98.328125 -167.695312 107.238281 -169.671875 116.84375 -169.671875 C 126.03125 -169.671875 134.195312 -168.28125 141.34375 -165.5 C 148.488281 -162.726562 154.410156 -159.101562 159.109375 -154.625 C 168.710938 -145.238281 173.515625 -127.953125 173.515625 -102.765625 L 173.515625 0 L 129.65625 0 L 129.65625 -93.484375 C 129.65625 -103.515625 129.015625 -111.515625 127.734375 -117.484375 C 126.453125 -123.460938 123.890625 -128.050781 120.046875 -131.25 C 116.210938 -134.457031 110.34375 -136.0625 102.4375 -136.0625 C 88.570312 -136.0625 79.128906 -131.578125 74.109375 -122.609375 C 69.097656 -113.648438 66.59375 -101.703125 66.59375 -86.765625 L 66.59375 0 L 22.734375 0 L 22.734375 -229.21875 L 66.59375 -229.21875 Z M 66.59375 -144.703125 "/></g></g></g><g fill="#000000" fill-opacity="1"><g transform="translate(1004.525498, 438.451279)"><g><path d="M 65.953125 -80.671875 C 65.953125 -68.929688 66.21875 -60.394531 66.75 -55.0625 C 67.28125 -49.726562 68.398438 -45.460938 70.109375 -42.265625 C 72.023438 -38.628906 74.957031 -35.632812 78.90625 -33.28125 C 82.863281 -30.9375 87.722656 -29.765625 93.484375 -29.765625 C 101.160156 -29.765625 108.09375 -31.898438 114.28125 -36.171875 C 120.476562 -40.441406 124.429688 -45.671875 126.140625 -51.859375 C 128.054688 -58.046875 129.015625 -71.28125 129.015625 -91.5625 L 129.015625 -165.828125 L 172.875 -165.828125 L 172.875 0 L 132.21875 0 L 132.21875 -24.96875 L 131.578125 -24.96875 C 125.390625 -15.582031 117.382812 -8.429688 107.5625 -3.515625 C 97.75 1.390625 87.613281 3.84375 77.15625 3.84375 C 67.757812 3.84375 58.847656 1.921875 50.421875 -1.921875 C 41.992188 -5.765625 35.535156 -11.3125 31.046875 -18.5625 C 27.847656 -23.6875 25.554688 -29.34375 24.171875 -35.53125 C 22.785156 -41.71875 22.09375 -49.507812 22.09375 -58.90625 L 22.09375 -165.828125 L 65.953125 -165.828125 Z M 65.953125 -80.671875 "/></g></g></g><g fill="#000000" fill-opacity="1"><g transform="translate(1200.132542, 438.451279)"><g><path d="M 64.984375 -146.625 C 78.429688 -161.988281 94.546875 -169.671875 113.328125 -169.671875 C 126.128906 -169.671875 137.8125 -166.519531 148.375 -160.21875 C 158.945312 -153.925781 167.378906 -144.378906 173.671875 -131.578125 C 179.972656 -118.773438 183.125 -103.085938 183.125 -84.515625 C 183.125 -65.304688 179.867188 -49.082031 173.359375 -35.84375 C 166.847656 -22.613281 158.304688 -12.691406 147.734375 -6.078125 C 137.171875 0.535156 125.8125 3.84375 113.65625 3.84375 C 105.332031 3.84375 96.421875 1.601562 86.921875 -2.875 C 77.421875 -7.363281 69.148438 -14.515625 62.109375 -24.328125 L 62.109375 0 L 21.125 0 L 21.125 -229.21875 L 64.984375 -229.21875 Z M 64.671875 -86.4375 C 64.671875 -76.832031 65.363281 -68.988281 66.75 -62.90625 C 68.132812 -56.820312 70.425781 -51.539062 73.625 -47.0625 C 81.3125 -36.382812 91.128906 -31.046875 103.078125 -31.046875 C 112.472656 -31.046875 120.640625 -35.101562 127.578125 -43.21875 C 134.515625 -51.332031 137.984375 -64.457031 137.984375 -82.59375 C 137.984375 -98.8125 135.046875 -111.773438 129.171875 -121.484375 C 123.304688 -131.203125 113.972656 -136.0625 101.171875 -136.0625 C 90.492188 -136.0625 81.738281 -131.84375 74.90625 -123.40625 C 68.082031 -114.976562 64.671875 -102.65625 64.671875 -86.4375 Z M 64.671875 -86.4375 "/></g></g></g></svg>